<?xml version="1.0" encoding="UTF-8" standalone="no"?>
<svg width="31px" height="26px" viewBox="0 0 31 26" version="1.1" xmlns="http://www.w3.org/2000/svg" xmlns:xlink="http://www.w3.org/1999/xlink" xmlns:sketch="http://www.bohemiancoding.com/sketch/ns">
    <!-- Generator: Sketch 3.3.3 (12072) - http://www.bohemiancoding.com/sketch -->
    <title>Untitled 2</title>
    <desc>Created with Sketch.</desc>
    <defs>
        <path id="path-1" d="M0.00393916661,0.00798679374 L26.9176385,0.00798679374 L26.9176385,20.7861299 L0.00393916661,20.7861299 L0.00393916661,0.00798679374 Z"></path>
    </defs>
    <g id="Page-1" stroke="none" stroke-width="1" fill="none" fill-rule="evenodd" sketch:type="MSPage">
        <g id="twitter" sketch:type="MSLayerGroup" transform="translate(2.082362, 2.597097)">
            <mask id="mask-2" sketch:name="Clip 2" fill="white">
                <use xlink:href="#path-1"></use>
            </mask>
            <g id="Clip-2"></g>
            <path d="M26.8915087,2.46654653 C25.9020557,2.88360692 24.838809,3.16557818 23.7227118,3.29236853 C24.8619187,2.64325435 25.7366763,1.615953 26.1485162,0.39141529 C25.0824464,0.992171931 23.9016812,1.42876252 22.6450871,1.66368657 C21.6387613,0.64462161 20.2049047,0.00798679374 18.6179457,0.00798679374 C15.571263,0.00798679374 13.1008147,2.35566737 13.1008147,5.25125449 C13.1008147,5.66219998 13.1497916,6.06241322 13.2439377,6.4463409 C8.65874777,6.22745283 4.59339653,4.14009181 1.87241719,0.967587582 C1.39741935,1.74218178 1.12535425,2.64281757 1.12535425,3.60385348 C1.12535425,5.42284576 2.09911623,7.02787931 3.57958635,7.96819948 C2.67508804,7.94093207 1.82442501,7.70494727 1.08071036,7.31228405 C1.08018514,7.33424773 1.08018514,7.35621141 1.08018514,7.37836229 C1.08018514,9.91884906 2.98208043,12.0379077 5.50583882,12.5197984 C5.04292109,12.6394131 4.55544922,12.7038066 4.05228634,12.7038066 C3.69684221,12.7038066 3.35111469,12.6708611 3.01411898,12.6094626 C3.71627543,14.6927054 5.75387501,16.2087611 8.16812457,16.250879 C6.27981941,17.6574906 3.90095669,18.4957296 1.31614122,18.4957296 C0.870687126,18.4957296 0.431601355,18.4708956 0,18.4221013 C2.44149546,19.9101408 5.34144427,20.7780807 8.4571281,20.7780807 C18.6051435,20.7780807 24.1543131,12.7883543 24.1543131,5.85912436 C24.1543131,5.63199992 24.1489296,5.40581142 24.1384251,5.18080847 C25.216575,4.44159327 26.1518645,3.51805785 26.8915087,2.46654653 L26.8915087,2.46654653 Z" id="Fill-1" fill="#FFFFFF" sketch:type="MSShapeGroup" mask="url(#mask-2)"></path>
        </g>
    </g>
</svg>